<svg xmlns="http://www.w3.org/2000/svg" version="1.1" xmlns:xlink="http://www.w3.org/1999/xlink" xmlns:svgjs="http://svgjs.dev/svgjs" width="2000" height="454" viewBox="0 0 2000 454"><g transform="matrix(1,0,0,1,-1.5695758313689794,0.07491741484625436)"><svg viewBox="0 0 396 90" data-background-color="#f1f4fa" preserveAspectRatio="xMidYMid meet" height="454" width="2000" xmlns="http://www.w3.org/2000/svg" xmlns:xlink="http://www.w3.org/1999/xlink"><g id="tight-bounds" transform="matrix(1,0,0,1,0.31077601461106497,0.008735896867051451)"><svg viewBox="0 0 395.52 89.9825282062659" height="89.9825282062659" width="395.52"><g><svg viewBox="0 0 482.048598605797 109.6681624717766" height="89.9825282062659" width="395.52"><g transform="matrix(1,0,0,1,86.52859860579701,15.15674314913845)"><svg viewBox="0 0 395.52 79.3546761734997" height="79.3546761734997" width="395.52"><g id="textblocktransform"><svg viewBox="0 0 395.52 79.3546761734997" height="79.3546761734997" width="395.52" id="textblock"><g><svg viewBox="0 0 395.52 79.3546761734997" height="79.3546761734997" width="395.52"><g transform="matrix(1,0,0,1,0,0)"><svg width="395.52" viewBox="1.05 -43.35 252.42999999999998 50.65" height="79.3546761734997" data-palette-color="#374151"><path d="M12.1 0.4Q6.25 0.4 3.65-2.5 1.05-5.4 1.05-11.85L1.05-11.85 1.05-16.05 9.5-16.05 9.5-10.7Q9.5-7.5 11.55-7.5L11.55-7.5Q12.7-7.5 13.15-8.18 13.6-8.85 13.6-10.45L13.6-10.45Q13.6-12.55 13.1-13.93 12.6-15.3 11.83-16.23 11.05-17.15 9.05-19.1L9.05-19.1 5.35-22.8Q1.05-27 1.05-32.1L1.05-32.1Q1.05-37.6 3.58-40.48 6.1-43.35 10.95-43.35L10.95-43.35Q16.75-43.35 19.3-40.28 21.85-37.2 21.85-30.65L21.85-30.65 13.1-30.65 13.05-33.6Q13.05-34.45 12.58-34.95 12.1-35.45 11.25-35.45L11.25-35.45Q10.25-35.45 9.75-34.9 9.25-34.35 9.25-33.4L9.25-33.4Q9.25-31.3 11.65-29.05L11.65-29.05 16.65-24.25Q18.4-22.55 19.55-21.03 20.7-19.5 21.4-17.43 22.1-15.35 22.1-12.5L22.1-12.5Q22.1-6.15 19.78-2.88 17.45 0.4 12.1 0.4L12.1 0.4ZM31.85 0.4Q27.75 0.4 26.22-2.05 24.7-4.5 24.7-9.35L24.7-9.35 24.7-36.6 33.5-36.6 33.5-11.1Q33.5-10.75 33.5-9.22 33.5-7.7 33.97-7.08 34.45-6.45 35.45-6.45L35.45-6.45Q36.8-6.45 37.15-7.58 37.5-8.7 37.5-10.8L37.5-10.8 37.5-11.1 37.55-36.6 46.25-36.6 46.25 0 37.5 0 37.5-3.9Q36.6-1.6 35.4-0.6 34.2 0.4 31.85 0.4L31.85 0.4ZM49.75 7.3L49.75-36.6 58.65-36.6 58.65-34.65Q60.55-37 63.9-37L63.9-37Q68.15-37 69.82-34.15 71.5-31.3 71.5-26.25L71.5-26.25 71.5-12.7Q71.5-8.4 71-5.68 70.5-2.95 68.8-1.28 67.09 0.4 63.65 0.4L63.65 0.4Q60.35 0.4 58.65-1.45L58.65-1.45 58.65 7.3 49.75 7.3ZM60.75-6.4Q61.95-6.4 62.3-7.5 62.65-8.6 62.65-10.7L62.65-10.7 62.65-26.25Q62.65-28.15 62.3-29.15 61.95-30.15 60.7-30.15L60.7-30.15Q58.65-30.15 58.65-26.35L58.65-26.35 58.65-10.3Q58.65-8.45 59.07-7.43 59.5-6.4 60.75-6.4L60.75-6.4ZM84.99 0.4Q79.34 0.4 76.89-2.7 74.44-5.8 74.44-11.95L74.44-11.95 74.44-26.65Q74.44-31.7 77.34-34.35 80.24-37 85.44-37L85.44-37Q95.99-37 95.99-26.65L95.99-26.65 95.99-24Q95.99-20 95.89-17.5L95.89-17.5 83.19-17.5 83.19-10.4Q83.19-8.5 83.59-7.43 83.99-6.35 85.29-6.35L85.29-6.35Q86.29-6.35 86.72-6.95 87.14-7.55 87.22-8.33 87.29-9.1 87.29-10.6L87.29-10.6 87.29-14.15 95.99-14.15 95.99-12.05Q95.99-5.65 93.52-2.63 91.04 0.4 84.99 0.4L84.99 0.4ZM83.14-21.85L87.29-21.85 87.29-26.55Q87.29-30.5 85.34-30.5L85.34-30.5Q83.14-30.5 83.14-26.55L83.14-26.55 83.14-21.85ZM99.14 0L99.14-36.6 107.89-36.6 107.89-32.55Q108.54-34.7 110.17-35.88 111.79-37.05 114.19-37.05L114.19-37.05 114.19-29.75Q112.34-29.75 110.12-29.23 107.89-28.7 107.89-28L107.89-28 107.89 0 99.14 0ZM116.34 0L116.34-43.2 125.34-43.2 125.34-33Q126.74-37 130.69-37L130.69-37Q134.39-37 136.29-34.65 138.19-32.3 138.19-28.2L138.19-28.2 138.19 0 129.44 0 129.44-27.65Q129.44-28.85 128.89-29.6 128.34-30.35 127.29-30.35L127.29-30.35Q126.39-30.35 125.86-29.58 125.34-28.8 125.34-27.7L125.34-27.7 125.34 0 116.34 0ZM151.84 0.4Q146.19 0.4 143.74-2.7 141.29-5.8 141.29-11.95L141.29-11.95 141.29-26.65Q141.29-31.7 144.19-34.35 147.09-37 152.29-37L152.29-37Q162.84-37 162.84-26.65L162.84-26.65 162.84-24Q162.84-20 162.74-17.5L162.74-17.5 150.04-17.5 150.04-10.4Q150.04-8.5 150.44-7.43 150.84-6.35 152.14-6.35L152.14-6.35Q153.14-6.35 153.56-6.95 153.99-7.55 154.06-8.33 154.14-9.1 154.14-10.6L154.14-10.6 154.14-14.15 162.84-14.15 162.84-12.05Q162.84-5.65 160.36-2.63 157.89 0.4 151.84 0.4L151.84 0.4ZM149.99-21.85L154.14-21.85 154.14-26.55Q154.14-30.5 152.19-30.5L152.19-30.5Q149.99-30.5 149.99-26.55L149.99-26.55 149.99-21.85ZM165.98 0L165.98-36.6 174.73-36.6 174.73-32.55Q175.38-34.7 177.01-35.88 178.63-37.05 181.03-37.05L181.03-37.05 181.03-29.75Q179.18-29.75 176.96-29.23 174.73-28.7 174.73-28L174.73-28 174.73 0 165.98 0ZM193.83 0.4Q182.88 0.4 182.88-10.95L182.88-10.95 182.88-25.65Q182.88-30.85 185.81-33.93 188.73-37 193.83-37L193.83-37Q198.93-37 201.86-33.93 204.78-30.85 204.78-25.65L204.78-25.65 204.78-10.95Q204.78 0.4 193.83 0.4L193.83 0.4ZM193.83-6.35Q194.88-6.35 195.38-7.1 195.88-7.85 195.88-9.15L195.88-9.15 195.88-27.05Q195.88-30.25 193.83-30.25L193.83-30.25Q191.78-30.25 191.78-27.05L191.78-27.05 191.78-9.15Q191.78-7.85 192.28-7.1 192.78-6.35 193.83-6.35L193.83-6.35ZM218.28 0.4Q212.63 0.4 210.18-2.7 207.73-5.8 207.73-11.95L207.73-11.95 207.73-26.65Q207.73-31.7 210.63-34.35 213.53-37 218.73-37L218.73-37Q229.28-37 229.28-26.65L229.28-26.65 229.28-24Q229.28-20 229.18-17.5L229.18-17.5 216.48-17.5 216.48-10.4Q216.48-8.5 216.88-7.43 217.28-6.35 218.58-6.35L218.58-6.35Q219.58-6.35 220-6.95 220.43-7.55 220.5-8.33 220.58-9.1 220.58-10.6L220.58-10.6 220.58-14.15 229.28-14.15 229.28-12.05Q229.28-5.65 226.8-2.63 224.33 0.4 218.28 0.4L218.28 0.4ZM216.43-21.85L220.58-21.85 220.58-26.55Q220.58-30.5 218.63-30.5L218.63-30.5Q216.43-30.5 216.43-26.55L216.43-26.55 216.43-21.85ZM242.48 0.4Q231.63 0.4 231.63-10.6L231.63-10.6 231.68-13.5 240.43-13.5 240.48-9.2Q240.48-7.9 240.98-7.23 241.48-6.55 242.63-6.55L242.63-6.55Q244.38-6.55 244.38-9.4L244.38-9.4Q244.38-11.5 243.55-12.7 242.73-13.9 240.93-15.25L240.93-15.25 236.28-18.85Q233.88-20.7 232.83-22.68 231.78-24.65 231.78-28.25L231.78-28.25Q231.78-31.05 233.25-33.02 234.73-35 237.18-36 239.63-37 242.63-37L242.63-37Q253.28-37 253.28-26.4L253.28-26.4 253.28-25.7 244.23-25.7 244.23-27.1Q244.23-28.4 243.8-29.33 243.38-30.25 242.38-30.25L242.38-30.25Q241.48-30.25 241-29.73 240.53-29.2 240.53-28.3L240.53-28.3Q240.53-26.3 242.08-25.2L242.08-25.2 247.48-21.25Q250.38-19.1 251.93-16.57 253.48-14.05 253.48-10.2L253.48-10.2Q253.48-5.1 250.58-2.35 247.68 0.4 242.48 0.4L242.48 0.4Z" opacity="1" transform="matrix(1,0,0,1,0,0)" fill="#374151" class="wordmark-text-0" data-fill-palette-color="primary" id="text-0"></path></svg></g></svg></g></svg></g></svg></g><g><svg viewBox="0 0 67.7948640734619 109.6681624717766" height="109.6681624717766" width="67.7948640734619"><g><svg xmlns="http://www.w3.org/2000/svg" viewBox="15 6 34 55" x="0" y="0" height="109.6681624717766" width="67.7948640734619" class="icon-icon-0" data-fill-palette-color="accent" id="icon-0"><g fill="#374151" data-fill-palette-color="accent"><path d="M40 39.341V41a3 3 0 0 0 6 0v-0.687a8.926 8.926 0 0 0-4.346-2.152A11.99 11.99 0 0 1 40 39.341ZM42 40h2v2H42Z" fill="#374151" data-fill-palette-color="accent"></path><path d="M30.11 41a12.107 12.107 0 0 1-4.1-0.724 5.992 5.992 0 0 0 11.972 0 12.107 12.107 0 0 1-4.1 0.724Z" fill="#374151" data-fill-palette-color="accent"></path><path d="M30.11 39h3.78A10.109 10.109 0 0 0 44 28.89V18a12 12 0 0 0-24 0V28.89A10.109 10.109 0 0 0 30.11 39ZM27 26a1 1 0 1 1 1-1A1 1 0 0 1 27 26Zm6 11H31a1 1 0 0 1 0-2h2a1 1 0 0 1 0 2Zm4-11a1 1 0 1 1 1-1A1 1 0 0 1 37 26Zm-6 1h1V23a2 2 0 0 1 2-2h5a1 1 0 0 1 0 2H34v4a2 2 0 0 1-2 2H31a1 1 0 0 1 0-2Zm-6-6h4a1 1 0 0 1 0 2H25a1 1 0 0 1 0-2Z" fill="#374151" data-fill-palette-color="accent"></path><path d="M48 24a2 2 0 0 0-2-2v4A2 2 0 0 0 48 24Z" fill="#374151" data-fill-palette-color="accent"></path><path d="M18 40.313V41a3 3 0 0 0 6 0V39.341a11.99 11.99 0 0 1-1.654-1.18A8.926 8.926 0 0 0 18 40.313ZM22 42H20V40h2Z" fill="#374151" data-fill-palette-color="accent"></path><path d="M47.757 42.459a4.965 4.965 0 0 1-8.794 1.466A8.008 8.008 0 0 1 33 47.931V53H31V47.931a8.008 8.008 0 0 1-5.963-4.006 4.965 4.965 0 0 1-8.794-1.466A8.94 8.94 0 0 0 15 47v8h4V51h2V61H43V51h2v4h4V47A8.94 8.94 0 0 0 47.757 42.459Z" fill="#374151" data-fill-palette-color="accent"></path><rect x="45" y="57" width="4" height="4" fill="#374151" data-fill-palette-color="accent"></rect><path d="M18 26V22a2 2 0 0 0 0 4Z" fill="#374151" data-fill-palette-color="accent"></path><rect x="15" y="57" width="4" height="4" fill="#374151" data-fill-palette-color="accent"></rect></g></svg></g></svg></g></svg></g><defs></defs></svg><rect width="395.52" height="89.9825282062659" fill="none" stroke="none" visibility="hidden"></rect></g></svg></g></svg>