<svg xmlns="http://www.w3.org/2000/svg" version="1.1" xmlns:xlink="http://www.w3.org/1999/xlink" xmlns:svgjs="http://svgjs.dev/svgjs" width="128" height="128" viewBox="0 0 128 128"><g transform="matrix(0.5,0,0,0.5,32.29404492417828,12.760752631578953)"><svg viewBox="0 0 59 95" data-background-color="#374151" preserveAspectRatio="xMidYMid meet" height="206" width="128" xmlns="http://www.w3.org/2000/svg" xmlns:xlink="http://www.w3.org/1999/xlink"><g id="tight-bounds" transform="matrix(1,0,0,1,-0.01230909090909904,-0.24049999999999727)"><svg viewBox="0 0 59.02461818181818 95.481" height="95.481" width="59.02461818181818"><g><svg viewBox="0 0 59.02461818181818 95.481" height="95.481" width="59.02461818181818"><g><svg viewBox="0 0 59.02461818181818 95.481" height="95.481" width="59.02461818181818"><g id="textblocktransform"><svg viewBox="0 0 59.02461818181818 95.481" height="95.481" width="59.02461818181818" id="textblock"><g><svg viewBox="0 0 59.02461818181818 95.481" height="95.481" width="59.02461818181818"><g><svg viewBox="0 0 59.02461818181818 95.481" height="95.481" width="59.02461818181818"><g><svg xmlns="http://www.w3.org/2000/svg" viewBox="15 6 34 55" x="0" y="0" height="95.481" width="59.02461818181818" class="icon-icon-0" data-fill-palette-color="accent" id="icon-0"><g fill="#f1f4fa" data-fill-palette-color="accent"><path d="M40 39.341V41a3 3 0 0 0 6 0v-0.687a8.926 8.926 0 0 0-4.346-2.152A11.99 11.99 0 0 1 40 39.341ZM42 40h2v2H42Z" fill="#f1f4fa" data-fill-palette-color="accent"></path><path d="M30.11 41a12.107 12.107 0 0 1-4.1-0.724 5.992 5.992 0 0 0 11.972 0 12.107 12.107 0 0 1-4.1 0.724Z" fill="#f1f4fa" data-fill-palette-color="accent"></path><path d="M30.11 39h3.78A10.109 10.109 0 0 0 44 28.89V18a12 12 0 0 0-24 0V28.89A10.109 10.109 0 0 0 30.11 39ZM27 26a1 1 0 1 1 1-1A1 1 0 0 1 27 26Zm6 11H31a1 1 0 0 1 0-2h2a1 1 0 0 1 0 2Zm4-11a1 1 0 1 1 1-1A1 1 0 0 1 37 26Zm-6 1h1V23a2 2 0 0 1 2-2h5a1 1 0 0 1 0 2H34v4a2 2 0 0 1-2 2H31a1 1 0 0 1 0-2Zm-6-6h4a1 1 0 0 1 0 2H25a1 1 0 0 1 0-2Z" fill="#f1f4fa" data-fill-palette-color="accent"></path><path d="M48 24a2 2 0 0 0-2-2v4A2 2 0 0 0 48 24Z" fill="#f1f4fa" data-fill-palette-color="accent"></path><path d="M18 40.313V41a3 3 0 0 0 6 0V39.341a11.99 11.99 0 0 1-1.654-1.18A8.926 8.926 0 0 0 18 40.313ZM22 42H20V40h2Z" fill="#f1f4fa" data-fill-palette-color="accent"></path><path d="M47.757 42.459a4.965 4.965 0 0 1-8.794 1.466A8.008 8.008 0 0 1 33 47.931V53H31V47.931a8.008 8.008 0 0 1-5.963-4.006 4.965 4.965 0 0 1-8.794-1.466A8.94 8.94 0 0 0 15 47v8h4V51h2V61H43V51h2v4h4V47A8.94 8.94 0 0 0 47.757 42.459Z" fill="#f1f4fa" data-fill-palette-color="accent"></path><rect x="45" y="57" width="4" height="4" fill="#f1f4fa" data-fill-palette-color="accent"></rect><path d="M18 26V22a2 2 0 0 0 0 4Z" fill="#f1f4fa" data-fill-palette-color="accent"></path><rect x="15" y="57" width="4" height="4" fill="#f1f4fa" data-fill-palette-color="accent"></rect></g></svg></g></svg></g></svg></g></svg></g></svg></g></svg></g><defs></defs></svg><rect width="59.02461818181818" height="95.481" fill="none" stroke="none" visibility="hidden"></rect></g></svg></g></svg>